HIERARCHY
ROOT hip
{
	OFFSET 0.000000 0.000000 0.000000 
	CHANNELS 6 Xposition Yposition Zposition Zrotation Yrotation Xrotation
	JOINT abdomen
	{
		OFFSET 0.000000 20.688101 -0.731520 
		CHANNELS 3 Zrotation Xrotation Yrotation
		JOINT chest
		{
			OFFSET 0.000000 11.704300 -0.487680 
			CHANNELS 3 Zrotation Xrotation Yrotation
			JOINT neck
			{
				OFFSET 0.000000 22.189400 -2.194560 
				CHANNELS 3 Zrotation Xrotation Yrotation
				JOINT head
				{
					OFFSET -0.243840 7.071330 1.219200 
					CHANNELS 3 Zrotation Xrotation Yrotation
					End Site
					{
						OFFSET 1.000000 0.000000 0.000000 
					}
				}
			}
			JOINT rCollar
			{
				OFFSET -2.682240 19.263399 -4.876800 
				CHANNELS 3 Zrotation Xrotation Yrotation
				JOINT rShldr
				{
					OFFSET -8.778240 -1.950730 1.463040 
					CHANNELS 3 Zrotation Xrotation Yrotation
					JOINT rForeArm
					{
						OFFSET -28.174200 -1.711500 0.487680 
						CHANNELS 3 Zrotation Xrotation Yrotation
						JOINT rHand
						{
							OFFSET -22.587900 0.773209 7.071360 
							CHANNELS 3 Zrotation Xrotation Yrotation
							End Site
							{
								OFFSET -1.782710 -1.182140 1.430490 
							}
						}
					}
				}
			}
			JOINT lCollar
			{
				OFFSET 2.682240 19.263399 -4.876800 
				CHANNELS 3 Zrotation Xrotation Yrotation
				JOINT lShldr
				{
					OFFSET 8.778240 -1.950730 1.463040 
					CHANNELS 3 Zrotation Xrotation Yrotation
					JOINT lForeArm
					{
						OFFSET 28.174200 -1.711500 0.487680 
						CHANNELS 3 Zrotation Xrotation Yrotation
						JOINT lHand
						{
							OFFSET 22.587900 0.773209 7.071360 
							CHANNELS 3 Zrotation Xrotation Yrotation
							End Site
							{
								OFFSET 1.782710 -1.182140 1.430490 
							}
						}
					}
				}
			}
		}
	}
	JOINT rButtock
	{
		OFFSET -8.778240 4.350840 1.219200 
		CHANNELS 3 Zrotation Xrotation Yrotation
		JOINT rThigh
		{
			OFFSET 0.000000 -1.706870 -2.194560 
			CHANNELS 3 Zrotation Xrotation Yrotation
			JOINT rShin
			{
				OFFSET 0.000000 -36.819901 0.731520 
				CHANNELS 3 Zrotation Xrotation Yrotation
				JOINT rFoot
				{
					OFFSET 0.731520 -45.110401 -5.120640 
					CHANNELS 3 Zrotation Xrotation Yrotation
					End Site
					{
						OFFSET -1.122100 -3.699640 12.103000 
					}
				}
			}
		}
	}
	JOINT lButtock
	{
		OFFSET 8.778240 4.350840 1.219200 
		CHANNELS 3 Zrotation Xrotation Yrotation
		JOINT lThigh
		{
			OFFSET 0.000000 -1.706870 -2.194560 
			CHANNELS 3 Zrotation Xrotation Yrotation
			JOINT lShin
			{
				OFFSET 0.000000 -36.819901 0.731520 
				CHANNELS 3 Zrotation Xrotation Yrotation
				JOINT lFoot
				{
					OFFSET -0.731520 -45.110401 -5.120640 
					CHANNELS 3 Zrotation Xrotation Yrotation
					End Site
					{
						OFFSET 1.122100 -3.699640 12.103000 
					}
				}
			}
		}
	}
}
MOTION
Frames: 15
Frame Time: 0.008333
-43.893799 84.311897 -28.139400 -511.562988 71.589600 -497.329987 -13.294000 18.037399 7.057830 -5.729100 -1.558930 1.706050 -0.628136 -4.474040 -3.915230 11.795900 17.699301 -7.424630 -0.000000 0.000000 0.000000 -25.271900 50.261700 74.348701 -27.176399 -26.945601 62.386002 -1.893410 -35.811501 -5.823830 -0.000000 0.000000 0.000000 6.069000 44.369900 -98.221199 15.388000 -8.130780 -28.391001 0.110700 9.446150 -1.339850 -0.000000 0.000000 -0.000000 1.938560 -15.983700 -8.985510 0.630371 8.825920 0.404027 -0.984423 -3.184010 -9.145710 0.000000 0.000000 0.000000 12.850000 -35.792400 -7.606370 0.232267 30.541901 -0.434313 1.078730 -8.625250 1.208920 
-43.849098 84.333603 -28.117399 -511.398010 71.546501 -497.188995 -13.376300 18.020800 7.048140 -5.692090 -1.552690 1.702560 -0.579569 -4.436690 -3.900460 11.686300 17.791300 -7.392200 -0.000000 0.000000 0.000000 -25.235800 50.187401 74.279900 -27.146400 -26.839199 62.215698 -2.234680 -38.404701 -6.396290 -0.000000 0.000000 0.000000 5.739480 44.487400 -97.926102 15.372400 -8.116970 -28.358700 0.109196 9.382290 -1.330630 -0.000000 0.000000 -0.000000 1.986690 -15.924600 -8.956070 0.630777 8.819260 0.403463 -0.993895 -3.246760 -9.147580 0.000000 0.000000 0.000000 12.913800 -35.693802 -7.556420 0.231201 30.452700 -0.433328 1.083980 -8.614730 1.229590 
-43.792900 84.373596 -28.095800 -511.162994 71.581802 -497.002014 -13.457800 17.987400 7.040420 -5.642530 -1.547560 1.699560 -0.540280 -4.402030 -3.874850 11.583400 17.880899 -7.336050 -0.000000 0.000000 0.000000 -25.414101 50.122101 74.361900 -27.119101 -26.743900 62.064499 -2.531390 -40.430000 -6.873330 -0.000000 0.000000 0.000000 5.403110 44.607700 -97.620796 15.358700 -8.104820 -28.330200 0.107345 9.303120 -1.319200 -0.000000 0.000000 -0.000000 2.042880 -15.874200 -8.904960 0.631158 8.813120 0.402746 -1.003650 -3.309190 -9.158940 0.000000 0.000000 0.000000 12.988300 -35.594501 -7.496200 0.230129 30.362700 -0.432387 1.093370 -8.604450 1.265890 
-43.758900 84.398499 -28.085400 -511.079010 71.680199 -496.920013 -13.513300 17.931601 7.047150 -5.595810 -1.538960 1.701490 -0.523331 -4.383820 -3.851380 11.552600 17.975201 -7.287450 0.000000 0.000000 0.000000 -25.800400 50.090401 74.575203 -27.101000 -26.681400 61.966400 -2.730150 -41.625401 -7.174360 0.000000 0.000000 0.000000 5.167490 44.698898 -97.406197 15.347800 -8.095180 -28.307600 0.105347 9.217310 -1.306810 -0.000000 0.000000 -0.000000 2.112050 -15.852000 -8.843000 0.631546 8.812140 0.402145 -1.010410 -3.348920 -9.181860 0.000000 0.000000 0.000000 13.072400 -35.522598 -7.452090 0.229340 30.295500 -0.431804 1.106170 -8.599650 1.314770 
-43.739601 84.409798 -28.065100 -510.911987 71.725998 -496.740997 -13.522100 17.838600 7.074890 -5.561650 -1.527500 1.710680 -0.534831 -4.383610 -3.831650 11.642800 18.095900 -7.253400 0.000000 0.000000 0.000000 -26.473700 50.091400 74.980598 -27.093700 -26.656500 61.928101 -2.769740 -41.796600 -7.224560 0.000000 0.000000 0.000000 5.071600 44.763000 -97.310799 15.342700 -8.090600 -28.297001 0.103110 9.120650 -1.292870 -0.000000 0.000000 -0.000000 2.212090 -15.871300 -8.763070 0.631969 8.821340 0.401885 -1.013330 -3.359880 -9.222210 0.000000 0.000000 0.000000 13.187500 -35.493301 -7.418570 0.229018 30.265699 -0.431844 1.122220 -8.605020 1.374670 
-43.727901 84.415802 -28.030001 -510.587006 71.718002 -496.398010 -13.502200 17.715900 7.115890 -5.529980 -1.515030 1.724370 -0.566920 -4.394790 -3.809350 11.808600 18.232401 -7.217670 -0.000000 0.000000 0.000000 -27.410999 50.110600 75.566399 -27.094299 -26.658400 61.931900 -2.660580 -41.127899 -7.057280 -0.000000 0.000000 0.000000 5.055500 44.814201 -97.281403 15.342000 -8.089880 -28.295401 0.100606 9.010670 -1.277010 -0.000000 0.000000 -0.000000 2.335020 -15.919000 -8.662660 0.632405 8.837000 0.401771 -1.014110 -3.354040 -9.277100 0.000000 0.000000 0.000000 13.327100 -35.488998 -7.385690 0.228970 30.257999 -0.432276 1.141930 -8.616660 1.447480 
-43.708801 84.421501 -27.981199 -510.162994 71.762100 -495.941010 -13.486500 17.591000 7.161160 -5.486490 -1.498760 1.739400 -0.611669 -4.418790 -3.785640 11.974200 18.344500 -7.176690 -0.000000 0.000000 0.000000 -28.454201 50.153099 76.206100 -27.102301 -26.685801 61.974998 -2.464880 -39.923801 -6.759660 -0.000000 0.000000 0.000000 5.079670 44.840599 -97.298103 15.340000 -8.088140 -28.291401 0.098104 8.898750 -1.260890 -0.000000 0.000000 -0.000000 2.447000 -15.975100 -8.559580 0.632807 8.850590 0.401445 -1.013340 -3.336090 -9.335480 0.000000 0.000000 0.000000 13.448600 -35.488899 -7.373000 0.228922 30.250900 -0.432678 1.165410 -8.626920 1.535300 
-43.691898 84.430496 -27.938499 -509.911987 71.781601 -495.669006 -13.508500 17.491600 7.201690 -5.416880 -1.475920 1.752640 -0.661144 -4.457020 -3.761690 12.063800 18.391600 -7.126900 -0.000000 -0.000000 0.000000 -29.445101 50.228199 76.774300 -27.117100 -26.736700 62.054501 -2.241950 -38.488998 -6.416040 -0.000000 -0.000000 0.000000 5.104290 44.829800 -97.340897 15.331500 -8.080550 -28.273500 0.095848 8.796260 -1.246140 -0.000000 0.000000 -0.000000 2.514010 -16.019699 -8.471650 0.633129 8.853620 0.400546 -1.011590 -3.310720 -9.386320 0.000000 0.000000 0.000000 13.509800 -35.472099 -7.400080 0.228601 30.222700 -0.432625 1.192730 -8.628130 1.640280 
-43.676800 84.439499 -27.913200 -509.881989 71.809402 -495.644012 -13.581100 17.424601 7.239930 -5.312950 -1.442060 1.765140 -0.712083 -4.520320 -3.739020 12.055300 18.344200 -7.071410 -0.000000 -0.000000 -0.000000 -30.407801 50.342999 77.287697 -27.135099 -26.800200 62.157700 -1.999510 -36.782700 -6.026440 -0.000000 -0.000000 -0.000000 5.144810 44.760399 -97.436600 15.310800 -8.062250 -28.230499 0.093707 8.698480 -1.232070 -0.000000 0.000000 -0.000000 2.522400 -16.049400 -8.404160 0.633350 8.843130 0.398901 -1.008450 -3.276090 -9.426540 0.000000 0.000000 0.000000 13.488000 -35.432499 -7.492150 0.227921 30.167500 -0.432046 1.227870 -8.619180 1.778690 
-43.681198 84.445702 -27.892900 -509.895996 71.920502 -495.612000 -13.685200 17.375401 7.279050 -5.183810 -1.399890 1.777960 -0.769060 -4.604460 -3.716610 11.990000 18.229900 -7.010860 -0.000000 -0.000000 -0.000000 -31.407200 50.491600 77.799797 -27.157499 -26.879999 62.290401 -1.737350 -34.680599 -5.575720 -0.000000 -0.000000 -0.000000 5.213080 44.644699 -97.584396 15.282100 -8.036980 -28.171101 0.091611 8.601940 -1.218180 -0.000000 0.000000 -0.000000 2.491790 -16.074400 -8.347450 0.633495 8.823900 0.396726 -1.003780 -3.230740 -9.462060 0.000000 0.000000 0.000000 13.409900 -35.381302 -7.631980 0.227033 30.096901 -0.431154 1.269380 -8.603800 1.944140 
-43.681599 84.453796 -27.866400 -509.955994 72.018997 -495.649994 -13.806200 17.339399 7.311240 -5.041060 -1.357400 1.787890 -0.835908 -4.688220 -3.691820 11.887800 18.094900 -6.938010 0.000000 -0.000000 -0.000000 -32.344601 50.667999 78.240097 -27.190399 -26.997200 62.477901 -1.482620 -32.363701 -5.108100 0.000000 -0.000000 -0.000000 5.264430 44.521400 -97.722801 15.254700 -8.012790 -28.114401 0.089852 8.519840 -1.206380 -0.000000 0.000000 -0.000000 2.437870 -16.094299 -8.296900 0.633594 8.798960 0.394254 -0.998569 -3.179910 -9.495380 0.000000 0.000000 0.000000 13.306500 -35.323601 -7.775470 0.226023 30.015600 -0.429956 1.309180 -8.581670 2.104770 
-43.683899 84.461601 -27.836300 -510.084015 72.099098 -495.753998 -13.929300 17.311800 7.328680 -4.896340 -1.322550 1.791730 -0.916481 -4.750420 -3.662000 11.768200 17.984900 -6.845540 0.000000 -0.000000 -0.000000 -33.119999 50.868000 78.536003 -27.239100 -27.171400 62.746399 -1.249060 -30.014299 -4.656860 0.000000 -0.000000 -0.000000 5.255410 44.429600 -97.792198 15.237700 -7.997790 -28.079201 0.088707 8.465390 -1.198550 -0.000000 0.000000 -0.000000 2.376370 -16.108500 -8.247900 0.633676 8.771340 0.391714 -0.993855 -3.128850 -9.528980 0.000000 0.000000 0.000000 13.209000 -35.264801 -7.878660 0.224976 29.928699 -0.428457 1.339210 -8.552490 2.228700 
-43.690399 84.467300 -27.806299 -510.279999 72.214600 -495.917999 -14.070800 17.292500 7.338100 -4.737810 -1.300450 1.789850 -1.022880 -4.778930 -3.626990 11.622400 17.904600 -6.726470 0.000000 0.000000 0.000000 -33.674801 51.111900 78.632103 -27.306000 -27.417101 63.127300 -1.046720 -27.719101 -4.235180 0.000000 0.000000 0.000000 5.165440 44.386200 -97.780197 15.233600 -7.994180 -28.070801 0.088454 8.452950 -1.196770 -0.000000 0.000000 -0.000000 2.299780 -16.112900 -8.197240 0.633722 8.738130 0.388934 -0.990267 -3.077510 -9.566290 0.000000 0.000000 0.000000 13.118700 -35.200500 -7.912750 0.223813 29.827801 -0.426412 1.353780 -8.512480 2.294560 
-43.696400 84.472000 -27.772900 -510.432007 72.351097 -496.049988 -14.232000 17.283701 7.340730 -4.564250 -1.285860 1.783540 -1.149410 -4.787190 -3.588030 11.444700 17.831800 -6.586420 0.000000 0.000000 0.000000 -34.069698 51.396801 78.575500 -27.384199 -27.715799 63.602402 -0.867721 -25.368401 -3.822260 0.000000 0.000000 0.000000 5.021190 44.368401 -97.718102 15.237600 -7.997650 -28.079000 0.088852 8.471870 -1.199490 -0.000000 0.000000 -0.000000 2.203590 -16.109100 -8.148040 0.633722 8.698950 0.385869 -0.987126 -3.023560 -9.605080 0.000000 0.000000 0.000000 13.021400 -35.129902 -7.906990 0.222529 29.713699 -0.423902 1.358390 -8.463050 2.323660 
-43.698799 84.476196 -27.757900 -510.669006 72.449799 -496.291992 -14.375200 17.284100 7.320540 -4.403120 -1.271210 1.771010 -1.273190 -4.792410 -3.544530 11.259400 17.773100 -6.436770 0.000000 0.000000 0.000000 -34.382301 51.684399 78.446198 -27.465300 -28.038700 64.122498 -0.695173 -22.849501 -3.396460 0.000000 0.000000 0.000000 4.850600 44.355701 -97.612801 15.247600 -8.006510 -28.099899 0.089397 8.497800 -1.203210 -0.000000 0.000000 -0.000000 2.107990 -16.105400 -8.105210 0.633727 8.660670 0.382943 -0.983513 -2.968870 -9.639280 0.000000 0.000000 0.000000 12.923600 -35.063702 -7.904590 0.221315 29.604099 -0.421427 1.361850 -8.411800 2.348100 
